<svg width="18" height="15" viewBox="0 0 18 15" fill="none" xmlns="http://www.w3.org/2000/svg">
<path fill-rule="evenodd" clip-rule="evenodd" d="M13.2289 1.19159V2.34813H14.4217V3.50467H15.6145V4.62617V5.74766V6.83411H14.4217V7.99065H13.2289V9.1472H12.0361V10.3037H10.8434V11.4603H9.6506V12.6168H8.60241V11.4603H7.40964V10.3037H6.21687V9.1472H5.0241V7.99065H3.83133V6.83411H2.49398V5.74766V4.62617V3.50467H3.68675V2.34813H4.87952V1.19159H5.92771V2.34813H7.12048V3.50467H8.38554H9.57831H10.8434V2.34813H12.0361V1.19159H13.2289ZM14.7831 0H11.0964V1.1215H9.6506V2.27804H8.45783V1.1215H7.40964V0H3.68675V1.1215H2.42169V2.27804H1.19277V3.43458H0V5.74766H1.19277V8.06075H2.38554V9.21729H3.6506V10.3738H4.77108V11.7757H5.96386V12.6869H7.33735V13.8435H8.38554V15H9.57831V13.8435H11.0241V12.6869H12V11.7757H13.1928V10.3738H14.7108V9.21729H15.6145V8.06075H16.8072V5.74766H18V3.43458H16.8072V2.27804H15.6145V1.1215H14.7108V0H14.7831Z" fill="white"/>
</svg>
